# xmcd
#
# Track frame offsets:
#	150
#	20766
#	34392
#	51550
#	69335
#	88413
#
# Disc length: 1450 seconds
# Revision: 0
# Processed by: cddbd v1.5.2PL0 Copyright (c) Steve Scherf et al.
# Submitted via: dBpowerAMP V12.0
#
DISCID=5705a806
DTITLE=Mark Olson and Gary Louris - Bicycle Sessions
DYEAR=2008
DGENRE=Americana
TTITLE0=Black Eyes
TTITLE1=The Rose Society
TTITLE2=Bicycle
TTITLE3=Saturday Morning on a Sunday Street
TTITLE4=When the Wind Comes Up
TTITLE5=Turn Your Pretty Name Around
EXTD=
EXTT0=
EXTT1=
EXTT2=
EXTT3=
EXTT4=
EXTT5=
PLAYORDER=
